<svg width="48" height="48" viewBox="0 0 48 48" fill="none" xmlns="http://www.w3.org/2000/svg">
<path d="M0 16C0 7.16344 7.16344 0 16 0H32C40.8366 0 48 7.16344 48 16V32C48 40.8366 40.8366 48 32 48H16C7.16344 48 0 40.8366 0 32V16Z" fill="#FFD180"/>
<g clip-path="url(#clip0_1299_15593)">
<mask id="mask0_1299_15593" style="mask-type:alpha" maskUnits="userSpaceOnUse" x="8" y="8" width="32" height="32">
<path d="M32.6095 24.8883C32.4055 26.8656 31.5293 28.713 30.1273 30.1221C28.7253 31.5312 26.8824 32.4167 24.9061 32.6307C24.8664 32.6302 24.8269 32.6377 24.79 32.6527C24.7531 32.6677 24.7197 32.6899 24.6915 32.7181C24.6634 32.7462 24.6412 32.7797 24.6261 32.8166C24.6111 32.8534 24.6036 32.8929 24.6041 32.9327V39.396C24.6041 39.5562 24.5405 39.7098 24.4272 39.8231C24.3139 39.9364 24.1603 40 24.0001 40C23.8399 40 23.6862 39.9364 23.573 39.8231C23.4597 39.7098 23.396 39.5562 23.396 39.396V37.0509C23.3903 36.9727 23.3566 36.8991 23.3012 36.8437C23.2457 36.7883 23.1722 36.7546 23.094 36.7488C20.4075 36.5314 17.8592 35.4672 15.816 33.7094C13.7728 31.9516 12.34 29.5908 11.7238 26.9669C11.7009 26.8892 11.6938 26.8076 11.7031 26.7271C11.7123 26.6466 11.7377 26.5687 11.7776 26.4982C11.8176 26.4277 11.8714 26.3659 11.9357 26.3166C12 26.2673 12.0736 26.2314 12.1521 26.2112C12.2306 26.1909 12.3123 26.1866 12.3925 26.1986C12.4726 26.2106 12.5496 26.2386 12.6187 26.2809C12.6878 26.3232 12.7477 26.3791 12.7948 26.445C12.8419 26.511 12.8752 26.5858 12.8928 26.6649C13.4406 29.0202 14.7179 31.1424 16.5426 32.7292C18.3674 34.3159 20.6464 35.2862 23.0549 35.5017C23.1331 35.5408 23.2077 35.5017 23.2823 35.4271C23.3218 35.4048 23.3537 35.3712 23.3739 35.3307C23.3942 35.2902 23.4019 35.2446 23.396 35.1996V32.9327C23.3965 32.8929 23.389 32.8534 23.374 32.8166C23.359 32.7797 23.3368 32.7462 23.3086 32.7181C23.2805 32.6899 23.247 32.6677 23.2102 32.6527C23.1733 32.6377 23.1338 32.6302 23.094 32.6307C21.1272 32.4116 19.2919 31.5352 17.885 30.1435C16.4785 28.7298 15.6004 26.8757 15.3978 24.8918C15.3863 24.8193 15.3498 24.7529 15.2947 24.7043C15.2396 24.6557 15.1693 24.6278 15.0958 24.6254H8.63255C8.46764 24.6254 8.30948 24.5598 8.19287 24.4432C8.07625 24.3266 8.01074 24.1685 8.01074 24.0036C8.01074 23.8386 8.07625 23.6805 8.19287 23.5639C8.30948 23.4473 8.46764 23.3817 8.63255 23.3817H11.0878C11.1611 23.3787 11.2311 23.3505 11.286 23.302C11.341 23.2535 11.3777 23.1876 11.3898 23.1153C11.5511 20.4327 12.5478 17.8679 14.2402 15.7804C15.9326 13.6929 18.2359 12.1874 20.8271 11.475C20.984 11.4452 21.1464 11.4766 21.2809 11.5627C21.4154 11.6489 21.5119 11.7832 21.5505 11.9382C21.5891 12.0931 21.567 12.257 21.4886 12.3962C21.4103 12.5354 21.2816 12.6393 21.1291 12.6867C18.8109 13.3118 16.7457 14.6452 15.222 16.5008C13.6983 18.3564 12.7921 20.6415 12.6299 23.0371C12.6199 23.0812 12.6203 23.1271 12.631 23.171C12.6418 23.215 12.6627 23.2558 12.692 23.2903C12.7213 23.3248 12.7583 23.352 12.7999 23.3697C12.8415 23.3874 12.8867 23.3952 12.9319 23.3924H15.0816C15.1551 23.39 15.2254 23.3621 15.2805 23.3135C15.3356 23.2648 15.3721 23.1985 15.3836 23.1259C15.5848 21.145 16.4606 19.2934 17.8643 17.8813C19.268 16.4692 21.1144 15.5823 23.094 15.3693C23.1338 15.3698 23.1733 15.3623 23.2102 15.3473C23.247 15.3323 23.2805 15.3101 23.3086 15.2819C23.3368 15.2538 23.359 15.2203 23.374 15.1834C23.389 15.1466 23.3965 15.1071 23.396 15.0673V8.60404C23.396 8.44384 23.4597 8.2902 23.573 8.17692C23.6862 8.06364 23.8399 8 24.0001 8C24.1603 8 24.3139 8.06364 24.4272 8.17692C24.5405 8.2902 24.6041 8.44384 24.6041 8.60404V15.9343C24.6082 16.0198 24.5943 16.1052 24.5634 16.1851C24.5326 16.265 24.4853 16.3375 24.4248 16.398C24.3642 16.4586 24.2917 16.5058 24.2118 16.5367C24.132 16.5676 24.0465 16.5814 23.961 16.5774C17.3912 16.5774 14.108 24.6218 18.752 29.2694C23.396 33.9169 31.3232 30.5912 31.4369 24C31.436 23.9204 31.4509 23.8414 31.4809 23.7677C31.511 23.694 31.5554 23.627 31.6117 23.5708C31.668 23.5145 31.735 23.47 31.8087 23.44C31.8824 23.41 31.9614 23.395 32.0409 23.396H39.3676C39.5325 23.396 39.6907 23.4615 39.8073 23.5781C39.9239 23.6947 39.9894 23.8529 39.9894 24.0178C39.9894 24.1827 39.9239 24.3408 39.8073 24.4575C39.6907 24.5741 39.5325 24.6396 39.3676 24.6396H36.9514C36.8765 24.6366 36.8032 24.6626 36.747 24.7122C36.6907 24.7619 36.6558 24.8313 36.6494 24.9061C36.4533 27.6053 35.4094 30.1736 33.6668 32.2443C31.9241 34.3149 29.5718 35.782 26.9457 36.4362C26.1533 36.6245 25.8797 35.4164 26.6792 35.2281C29.0245 34.645 31.1277 33.3408 32.6926 31.4992C34.2575 29.6576 35.2052 27.3715 35.4023 24.9629C35.4123 24.9188 35.4119 24.8729 35.4011 24.829C35.3903 24.785 35.3694 24.7442 35.3401 24.7097C35.3108 24.6752 35.2739 24.648 35.2322 24.6303C35.1906 24.6126 35.1454 24.6048 35.1002 24.6076H32.9115C32.838 24.61 32.7677 24.6379 32.7126 24.6865C32.6574 24.7352 32.621 24.8015 32.6095 24.8741V24.8883ZM37.5022 14.8399L33.1353 19.1819C33.0286 19.2977 32.8805 19.3667 32.7232 19.3738H29.8131C29.7337 19.3807 29.657 19.4063 29.5892 19.4484L24.4158 24.6609C24.2995 24.7696 24.1455 24.8289 23.9863 24.8264C23.8272 24.8238 23.6752 24.7596 23.5624 24.6473C23.4496 24.5349 23.3848 24.3832 23.3816 24.2241C23.3784 24.0649 23.4371 23.9107 23.5453 23.7939L28.7187 18.5778C28.7535 18.5604 28.7827 18.5334 28.8028 18.5001C28.8229 18.4668 28.8332 18.4284 28.8324 18.3895V15.4724C28.8317 15.3883 28.848 15.305 28.8804 15.2274C28.9127 15.1499 28.9605 15.0797 29.0207 15.0211L33.3627 10.6827C33.4466 10.592 33.5558 10.5287 33.6761 10.501C33.7964 10.4733 33.9223 10.4825 34.0373 10.5274C34.1524 10.5722 34.2512 10.6507 34.321 10.7525C34.3908 10.8544 34.4283 10.9749 34.4287 11.0984V13.479C34.4337 13.5575 34.4671 13.6314 34.5227 13.687C34.5783 13.7426 34.6523 13.776 34.7307 13.781H37.0723C37.1972 13.7778 37.3201 13.8122 37.4252 13.8798C37.5302 13.9475 37.6125 14.0452 37.6612 14.1602C37.7099 14.2753 37.7228 14.4023 37.6982 14.5248C37.6737 14.6473 37.6128 14.7596 37.5235 14.847L37.5022 14.8399ZM32.5277 18.0378L35.0576 15.5079C35.1016 15.4673 35.1326 15.4147 35.1469 15.3565C35.1613 15.2984 35.1582 15.2374 35.1381 15.181C35.1181 15.1246 35.0819 15.0754 35.0341 15.0394C34.9863 15.0034 34.929 14.9822 34.8693 14.9785H33.8033C33.6383 14.9823 33.4784 14.9211 33.3581 14.8081C33.2378 14.6951 33.1667 14.5394 33.1602 14.3744V13.3404C33.1599 13.2792 33.1417 13.2195 33.1077 13.1686C33.0738 13.1176 33.0257 13.0778 32.9693 13.054C32.9129 13.0301 32.8508 13.0234 32.7906 13.0345C32.7305 13.0456 32.6749 13.0742 32.6308 13.1166L30.1435 15.6465C30.0771 15.7043 30.0363 15.786 30.0298 15.8739V17.8388C30.0294 17.8786 30.0368 17.9181 30.0519 17.9549C30.0669 17.9918 30.0891 18.0253 30.1172 18.0534C30.1454 18.0815 30.1789 18.1038 30.2157 18.1188C30.2526 18.1338 30.2921 18.1413 30.3319 18.1408H32.3323C32.4105 18.1408 32.4851 18.1408 32.5206 18.0626L32.5277 18.0378ZM29.1309 24.0071C29.1323 25.023 28.8323 26.0166 28.2688 26.8619C27.7053 27.7073 26.9037 28.3664 25.9655 28.756C25.0272 29.1456 23.9945 29.2481 22.9979 29.0505C22.0014 28.8529 21.0859 28.3641 20.3673 27.646C19.6486 26.9279 19.1592 26.0127 18.9609 25.0163C18.7626 24.0199 18.8644 22.9871 19.2533 22.0486C19.6423 21.11 20.3009 20.308 21.1459 19.7439C21.9908 19.1799 22.9842 18.8792 24.0001 18.8799C24.1527 18.8916 24.2954 18.9605 24.3994 19.0728C24.5034 19.1851 24.5612 19.3326 24.5612 19.4857C24.5612 19.6388 24.5034 19.7862 24.3994 19.8986C24.2954 20.0109 24.1527 20.0798 24.0001 20.0915C22.9635 20.0915 21.9693 20.5033 21.2364 21.2363C20.5034 21.9693 20.0916 22.9634 20.0916 24C20.0916 25.0366 20.5034 26.0307 21.2364 26.7637C21.9693 27.4967 22.9635 27.9085 24.0001 27.9085C26.267 27.9085 27.7771 26.2101 27.8873 24C27.8837 23.9143 27.8979 23.8287 27.9288 23.7487C27.9597 23.6687 28.0068 23.5959 28.0671 23.5348C28.1273 23.4738 28.1995 23.4258 28.2792 23.3938C28.3588 23.3618 28.4441 23.3466 28.5299 23.3491C28.6157 23.3515 28.7 23.3716 28.7777 23.408C28.8554 23.4444 28.9247 23.4965 28.9814 23.5609C29.0381 23.6253 29.081 23.7006 29.1073 23.7823C29.1336 23.8639 29.1429 23.9501 29.1344 24.0355L29.1309 24.0071Z" fill="white"/>
</mask>
<g mask="url(#mask0_1299_15593)">
<rect x="2.66406" y="2.66699" width="42.6667" height="42.6667" fill="#0A0A1A"/>
</g>
</g>
<defs>
<clipPath id="clip0_1299_15593">
<rect width="32" height="32" fill="white" transform="translate(8 8)"/>
</clipPath>
</defs>
</svg>
