<svg width="48" height="48" viewBox="0 0 48 48" fill="none" xmlns="http://www.w3.org/2000/svg">
<path d="M0 16C0 7.16344 7.16344 0 16 0H32C40.8366 0 48 7.16344 48 16V32C48 40.8366 40.8366 48 32 48H16C7.16344 48 0 40.8366 0 32V16Z" fill="#FFD180"/>
<g clip-path="url(#clip0_1299_15494)">
<mask id="mask0_1299_15494" style="mask-type:alpha" maskUnits="userSpaceOnUse" x="8" y="8" width="32" height="32">
<path fill-rule="evenodd" clip-rule="evenodd" d="M23.9998 34.625C24.345 34.625 24.6248 34.9048 24.6248 35.25V39.375C24.6248 39.7202 24.345 40 23.9998 40C23.6548 39.9998 23.3748 39.7201 23.3748 39.375V35.25C23.3748 34.9049 23.6548 34.6252 23.9998 34.625ZM14.3543 32.1387C14.5984 31.8947 14.994 31.8948 15.2381 32.1387C15.482 32.3826 15.482 32.7783 15.2381 33.0225L12.5868 35.6748C12.3427 35.9188 11.9471 35.9186 11.703 35.6748C11.4588 35.4307 11.4588 35.0349 11.703 34.791L14.3543 32.1387ZM32.7616 32.1387C33.0057 31.8948 33.4012 31.8949 33.6454 32.1387L36.2977 34.791C36.5414 35.0352 36.5416 35.4308 36.2977 35.6748C36.0536 35.9189 35.6578 35.9184 35.4139 35.6748L32.7616 33.0225C32.5177 32.7783 32.5176 32.3827 32.7616 32.1387ZM23.9998 15.25C27.5367 15.2501 31.1278 16.7057 34.3846 19.46C36.825 21.5237 38.2098 23.5657 38.2674 23.6514C38.4092 23.8623 38.4092 24.1377 38.2674 24.3486C38.2098 24.4346 36.825 26.4763 34.3846 28.54C31.1278 31.2943 27.5367 32.7499 23.9998 32.75C20.4631 32.75 16.8711 31.2944 13.6141 28.54C11.174 26.4763 9.78915 24.4346 9.73129 24.3486C9.58957 24.1378 9.58957 23.8622 9.73129 23.6514C9.78915 23.5654 11.174 21.5237 13.6141 19.46C16.8711 16.7056 20.4631 15.25 23.9998 15.25ZM23.9998 16.5C19.9096 16.5 16.5335 18.6292 14.4217 20.415C12.6911 21.8787 11.5089 23.3479 11.0204 24C11.5125 24.656 12.708 26.1407 14.4481 27.6074C16.5545 29.3831 19.9221 31.5 23.9998 31.5C28.0898 31.4998 31.4653 29.3708 33.577 27.585C35.3074 26.1216 36.4895 24.653 36.9784 24.001C36.4857 23.3445 35.2906 21.8594 33.5506 20.3926C31.4441 18.617 28.0774 16.5002 23.9998 16.5ZM23.9998 18.375C27.1013 18.375 29.6248 20.8984 29.6248 24C29.6248 27.092 27.1206 29.625 23.9998 29.625C20.8984 29.6249 18.3748 27.1015 18.3748 24C18.3748 23.6701 18.4047 23.3119 18.4686 22.9727C18.5333 22.6338 18.8619 22.4097 19.2 22.4736C19.5389 22.5386 19.7613 22.8632 19.6971 23.2021C19.6507 23.4839 19.6248 23.7083 19.6248 24C19.6248 26.4123 21.5876 28.3749 23.9998 28.375C26.4246 28.375 28.3748 26.4053 28.3748 24C28.3748 21.5876 26.4121 19.625 23.9998 19.625C23.5094 19.625 22.9759 19.7105 22.4998 19.8887C22.0769 20.0498 21.7485 19.8581 21.6307 19.5557C21.5057 19.2339 21.6654 18.8711 21.9871 18.7461C22.6306 18.4954 23.3432 18.375 23.9998 18.375ZM23.9998 21.5C25.3782 21.5 26.4998 22.6216 26.4998 24C26.4998 25.3784 25.3782 26.5 23.9998 26.5C22.6216 26.4998 21.4998 25.3783 21.4998 24C21.4998 22.6217 22.6216 21.5002 23.9998 21.5ZM23.9998 22.75C23.3108 22.7502 22.7498 23.3109 22.7498 24C22.7498 24.6891 23.3108 25.2498 23.9998 25.25C24.689 25.25 25.2498 24.6892 25.2498 24C25.2498 23.3108 24.689 22.75 23.9998 22.75ZM20.2498 20.25C20.5919 20.25 20.8748 20.5283 20.8748 20.875C20.8748 21.22 20.5948 21.5 20.2498 21.5C19.905 21.4998 19.6248 21.2201 19.6248 20.875C19.6248 20.5301 19.905 20.2502 20.2498 20.25ZM11.703 12.9512C11.9471 12.7074 12.343 12.7071 12.5868 12.9512L15.2381 15.6035C15.482 15.8477 15.482 16.2434 15.2381 16.4873C14.9938 16.7312 14.5984 16.7312 14.3543 16.4873L11.703 13.835C11.4588 13.5911 11.4588 13.1953 11.703 12.9512ZM35.4139 12.9512C35.6581 12.7073 36.0537 12.7071 36.2977 12.9512C36.5417 13.1952 36.5415 13.5911 36.2977 13.835L33.6454 16.4873C33.4012 16.7312 33.0056 16.7314 32.7616 16.4873C32.5175 16.2435 32.5177 15.8477 32.7616 15.6035L35.4139 12.9512ZM23.9998 8C24.345 8 24.6248 8.27979 24.6248 8.625V12.75C24.6248 13.0952 24.345 13.375 23.9998 13.375C23.6548 13.3748 23.3748 13.0951 23.3748 12.75V8.625C23.3748 8.27992 23.6548 8.00023 23.9998 8Z" fill="white"/>
</mask>
<g mask="url(#mask0_1299_15494)">
<rect x="2.66406" y="2.66699" width="42.6667" height="42.6667" fill="#0A0A1A"/>
</g>
</g>
<defs>
<clipPath id="clip0_1299_15494">
<rect width="32" height="32" fill="white" transform="translate(8 8)"/>
</clipPath>
</defs>
</svg>
